<svg aria-hidden="true" style="position:absolute;width:0;height:0;overflow:hidden" xmlns="http://www.w3.org/2000/svg"><defs><symbol id="icon-location" viewBox="0 0 32 32"><path d="M16.002 17.746c3.309 0 6-2.692 6-6s-2.691-6-6-6-6 2.691-6 6 2.691 6 6 6zm0-11c2.758 0 5 2.242 5 5s-2.242 5-5 5-5-2.242-5-5 2.242-5 5-5zM16 0C9.382 0 4 5.316 4 12.001c0 7 6.001 14.161 10.376 19.194.016.02.718.805 1.586.805h.077c.867 0 1.57-.785 1.586-.805 4.377-5.033 10.377-12.193 10.377-19.194A11.971 11.971 0 0 0 16 0zm.117 29.883c-.021.02-.082.064-.135.098-.01-.027-.084-.086-.129-.133C12.188 25.631 6 18.514 6 12.001 6 6.487 10.487 2 16 2c5.516 0 10.002 4.487 10.002 10.002 0 6.512-6.188 13.629-9.885 17.881z"/></symbol><symbol id="icon-logo" viewBox="0 0 35 28"><path d="m19.575 8.435-.655-.5a.499.499 0 0 0-.7.07l-9.065 10.41.14.155 2.245-2.07a.342.342 0 0 1-.209-.388.342.342 0 0 1 .344-.276.339.339 0 0 1 .325.24l2.96-2.745a.257.257 0 0 1 .32 0l.15.11a.25.25 0 0 0 .335-.04l3.87-4.34a.427.427 0 0 0 .113-.326.415.415 0 0 0-.173-.299z"/><path d="M23.835 11.365a20.22 20.22 0 0 1-6.56 3.075 35.608 35.608 0 0 1-7.135 1.06c.049.355.136.704.26 1.04 1.36 1.23 11.6-.87 13.6-3.3.425-.505-.165-1.875-.165-1.875zM11.675 16.5a.335.335 0 0 1-.333-.406.344.344 0 0 1 .463-.248.34.34 0 0 1 .21.314c.001.045-.008.089-.024.131s-.042.079-.074.111a.332.332 0 0 1-.242.098zM2 10.645l.08-.345 1.3.295c.107.198.174.416.195.64.025.238.01.478-.045.71a1.88 1.88 0 0 1-.43.87 1.714 1.714 0 0 1-.77.5 1.815 1.815 0 0 1-.945.035 1.761 1.761 0 0 1-.835-.44 1.657 1.657 0 0 1-.475-.785 1.886 1.886 0 0 1 0-1 2.14 2.14 0 0 1 .285-.69c.128-.192.299-.352.5-.465l.18.275a1.44 1.44 0 0 0-.66.97c-.062.259-.057.529.015.785.067.243.2.463.385.635.19.183.427.31.685.365.25.07.515.07.765 0a1.47 1.47 0 0 0 .625-.405c.175-.201.295-.444.35-.705a1.539 1.539 0 0 0-.06-.955L2 10.645zM4.83 7.5 3.665 9.055l.5.895-.23.31-1.85-3.375.215-.295 3.765.81-.235.31-1-.21zm-.33-.08-2-.45 1 1.795 1-1.345zm0-3.145.3-.225L6.705 6.6l1.57-1.175.19.255L6.6 7.075l-2.1-2.8zM7.65 2.19l.335-.15 1.32 2.89 1.785-.81.13.29-2.12.965L7.65 2.19zm6.59 1.15.075.315-2.41.565-.8-3.41 2.34-.545.07.31-2 .465.285 1.21 1.76-.415.075.31-1.765.41.3 1.265 2.07-.48zm3.435.125-.835-1.1a2.615 2.615 0 0 1-.28 0l-.94.03.035 1.11h-.37l-.115-3.5L16.5 0c.376-.035.752.066 1.06.285a1.1 1.1 0 0 1 .41.87c.015.247-.05.492-.185.7a1.17 1.17 0 0 1-.58.425l.875 1.17-.405.015zm-.35-1.645a.786.786 0 0 0 .255-.655.801.801 0 0 0-.295-.64A1.214 1.214 0 0 0 16.5.32l-.95.035.06 1.75.93-.03c.284.01.562-.08.785-.255zm2.995.715-.18 1.195-.365-.055.185-1.175L18.925 0l.39.06.885 2.13L21.7.425l.35.075-1.73 2.035zm4.945-.21.435.565-.19.15-.435-.58-.275.655-.21-.09.28-.655-.72.095v-.24l.71-.08-.44-.565.195-.15L25 2l.27-.66.215.09-.255.67.72-.1v.245l-.685.08zm1.67 4.03a1.38 1.38 0 0 1-.215-.605l.295-.13c.022.198.087.389.19.56.112.191.257.361.43.5.178.171.406.281.65.315a.547.547 0 0 0 .563-.353.448.448 0 0 0 .022-.182.922.922 0 0 0-.12-.345 5.385 5.385 0 0 0-.305-.445 4.562 4.562 0 0 1-.36-.55 1.008 1.008 0 0 1-.13-.47c0-.185.069-.364.195-.5a.914.914 0 0 1 .415-.285c.181-.052.374-.052.555 0 .234.076.45.199.635.36.154.128.29.276.405.44.106.152.186.321.235.5l-.285.15a1.77 1.77 0 0 0-.22-.47 1.824 1.824 0 0 0-.335-.345 1.11 1.11 0 0 0-.645-.305.544.544 0 0 0-.47.205.43.43 0 0 0-.115.34.815.815 0 0 0 .12.355c.07.115.17.265.305.445.134.17.254.351.36.54.083.143.13.305.135.47a.736.736 0 0 1-.195.5.883.883 0 0 1-.42.285.954.954 0 0 1-.555 0 1.86 1.86 0 0 1-.64-.36 2.286 2.286 0 0 1-.5-.62zm5.03.73-.705-1 .26-.185 1.625 2.32-.26.185-.705-1-2.61 1.825-.21-.305 2.605-1.84zm-1.12 4.11a1.66 1.66 0 0 1 .5-.78c.232-.208.515-.351.82-.415.311-.071.635-.059.94.035.294.097.558.27.765.5.215.248.362.548.425.87.083.316.083.649 0 .965a1.715 1.715 0 0 1-.5.78 1.857 1.857 0 0 1-1.785.39 1.685 1.685 0 0 1-.765-.5 1.887 1.887 0 0 1-.425-.865 1.927 1.927 0 0 1 .025-.98zm.655 1.59c.167.19.383.33.625.405a1.553 1.553 0 0 0 1.45-.32c.185-.17.321-.385.395-.625a1.6 1.6 0 0 0-.325-1.47A1.423 1.423 0 0 0 33 10.37a1.5 1.5 0 0 0-.77 0c-.255.049-.49.168-.68.345-.186.17-.323.388-.395.63a1.498 1.498 0 0 0 0 .775c.055.248.174.477.345.665zM30.465 17l1.295-.5c0-.09.03-.18.055-.275l.245-.905-1.06-.275.095-.355 3.38.905-.34 1.265a1.586 1.586 0 0 1-.58.93 1.078 1.078 0 0 1-.95.14 1.085 1.085 0 0 1-.855-1.055l-1.38.5.095-.375zm1.675.14a.894.894 0 0 0 .556.435.892.892 0 0 0 .699-.1c.221-.177.371-.427.425-.705l.24-.9-1.695-.455-.24.9c-.092.268-.087.56.015.825zm-3.47 3.08-.255-.195 1.5-1.975 2.79 2.115-1.45 1.915-.255-.195 1.225-1.615-1-.755-1.095 1.445-.25-.19L31 19.325l-1.035-.785-1.295 1.68zm-1.17 3.985-.715.04v-.24L27.5 24l-.385-.595.195-.125.38.6.31-.67.215.115-.34.63.715-.04v.245h-.725l.385.595-.195.125-.38-.6-.33.65-.21-.12.365-.605zm-6.5-.4.605.335a1.55 1.55 0 0 1 1-.79c.199-.062.408-.084.615-.065a1 1 0 0 1 .5.18c.133.1.231.24.28.4.06.197.05.41-.03.6a2.491 2.491 0 0 1-.5.695c.165.089.318.198.455.325a.879.879 0 0 1 .205.345.668.668 0 0 1-.13.585.962.962 0 0 1-.56.385.871.871 0 0 1-.62 0 .614.614 0 0 1-.36-.425.682.682 0 0 1 .035-.5 2.41 2.41 0 0 1 .445-.615l-1.205-.67a2.381 2.381 0 0 0-.03.715H21.4a2.37 2.37 0 0 1 .1-.87l-.63-.35.13-.28zm.87.5 1.325.735c.174-.166.317-.36.425-.575a.634.634 0 0 0 0-.45.547.547 0 0 0-.35-.375 1.001 1.001 0 0 0-.64 0 1.205 1.205 0 0 0-.78.65l.02.015zm1.88 2a.446.446 0 0 0 .04-.37.621.621 0 0 0-.16-.26 2.166 2.166 0 0 0-.415-.275c-.152.15-.284.318-.395.5a.501.501 0 0 0-.04.37.426.426 0 0 0 .22.265.56.56 0 0 0 .395 0 .59.59 0 0 0 .335-.235l.02.005zm-8.845 1.355.07-3.5h.355l-.055 2.8 1.42-2.33h.175L18.2 27l.05-2.785h.355l-.065 3.5h-.305l-1.47-2.615-1.555 2.565-.305-.005zM13.165 24a1.707 1.707 0 0 1 .455 1.73 1.779 1.779 0 0 1-.475.815 1.673 1.673 0 0 1-.805.44 1.944 1.944 0 0 1-.97-.03 1.883 1.883 0 0 1-.84-.455 1.685 1.685 0 0 1-.465-.79 1.85 1.85 0 0 1 .5-1.76c.218-.218.491-.373.79-.45.319-.072.651-.062.965.03.318.081.609.243.845.47zm-1.705-.175a1.336 1.336 0 0 0-.645.36 1.447 1.447 0 0 0-.38.665c-.07.25-.07.515 0 .765.059.243.185.465.365.64.188.184.421.317.675.385.254.065.521.065.775 0 .245-.06.469-.184.65-.36.183-.184.314-.414.38-.665.07-.252.07-.518 0-.77a1.402 1.402 0 0 0-.37-.64 1.507 1.507 0 0 0-.68-.38 1.438 1.438 0 0 0-.77 0zM7.675 21.5l.135 1.375c.086.037.169.078.25.125l.815.47.55-.97.325.185L8 25.7l-1.14-.655a1.588 1.588 0 0 1-.75-.8c-.054-.156-.073-.323-.054-.488s.075-.323.164-.462c.116-.219.3-.395.525-.5.228-.094.48-.114.72-.055l-.145-1.47.355.23zm-.57 1.58a.908.908 0 0 0-.562.425.898.898 0 0 0-.083.699c.117.259.32.469.575.595l.805.465.875-1.5-.805-.465a1.237 1.237 0 0 0-.805-.245v.025zm-2.39-3.925.225-.225 1.725 1.775-2.5 2.44-1.665-1.72.23-.225 1.415 1.455L5 21.79 3.76 20.5l.24-.23 1.265 1.3.93-.905-1.48-1.51zM1 17.19l.12-.69.235.035-.135.71.665-.245.08.22-.675.23.555.47-.16.18-.535-.5-.125.71-.24-.045.14-.71-.67.24L.18 17.6l.67-.235-.555-.465.165-.18.54.47z"/></symbol><symbol id="icon-envelope-o" viewBox="0 0 28 28"><path d="M26 23.5v-12a8.408 8.408 0 0 1-1.078 1.031c-2.234 1.719-4.484 3.469-6.656 5.281-1.172.984-2.625 2.188-4.25 2.188h-.031c-1.625 0-3.078-1.203-4.25-2.188-2.172-1.813-4.422-3.563-6.656-5.281A8.411 8.411 0 0 1 2.001 11.5v12c0 .266.234.5.5.5h23c.266 0 .5-.234.5-.5zm0-16.422C26 6.687 26.094 6 25.5 6h-23c-.266 0-.5.234-.5.5 0 1.781.891 3.328 2.297 4.438a980.43 980.43 0 0 1 6.266 4.953c.828.672 2.328 2.109 3.422 2.109h.031c1.094 0 2.594-1.437 3.422-2.109a946.207 946.207 0 0 1 6.266-4.953c1.016-.797 2.297-2.531 2.297-3.859zm2-.578v17c0 1.375-1.125 2.5-2.5 2.5h-23A2.507 2.507 0 0 1 0 23.5v-17C0 5.125 1.125 4 2.5 4h23C26.875 4 28 5.125 28 6.5z"/></symbol><symbol id="icon-phone" viewBox="0 0 22 28"><path d="M22 19.375c0 .562-.25 1.656-.484 2.172-.328.766-1.203 1.266-1.906 1.656-.922.5-1.859.797-2.906.797-1.453 0-2.766-.594-4.094-1.078a14.627 14.627 0 0 1-2.734-1.297c-2.656-1.641-5.859-4.844-7.5-7.5a14.627 14.627 0 0 1-1.297-2.734C.595 10.063.001 8.75.001 7.297c0-1.047.297-1.984.797-2.906.391-.703.891-1.578 1.656-1.906.516-.234 1.609-.484 2.172-.484.109 0 .219 0 .328.047.328.109.672.875.828 1.188.5.891.984 1.797 1.5 2.672.25.406.719.906.719 1.391 0 .953-2.828 2.344-2.828 3.187 0 .422.391.969.609 1.344 1.578 2.844 3.547 4.813 6.391 6.391.375.219.922.609 1.344.609.844 0 2.234-2.828 3.187-2.828.484 0 .984.469 1.391.719.875.516 1.781 1 2.672 1.5.313.156 1.078.5 1.188.828.047.109.047.219.047.328z"/></symbol><symbol id="icon-linkedin" viewBox="0 0 24 28"><path d="M5.453 9.766V25.25H.297V9.766h5.156zm.328-4.782c.016 1.484-1.109 2.672-2.906 2.672h-.031C1.11 7.656 0 6.468 0 4.984c0-1.516 1.156-2.672 2.906-2.672 1.766 0 2.859 1.156 2.875 2.672zM24 16.375v8.875h-5.141v-8.281c0-2.078-.75-3.5-2.609-3.5-1.422 0-2.266.953-2.641 1.875-.125.344-.172.797-.172 1.266v8.641H8.296c.063-14.031 0-15.484 0-15.484h5.141v2.25h-.031c.672-1.062 1.891-2.609 4.672-2.609 3.391 0 5.922 2.219 5.922 6.969z"/></symbol><symbol id="icon-facebook" viewBox="0 0 16 28"><path d="M14.984.187v4.125h-2.453c-1.922 0-2.281.922-2.281 2.25v2.953h4.578l-.609 4.625H10.25v11.859H5.469V14.14H1.485V9.515h3.984V6.109C5.469 2.156 7.891 0 11.422 0c1.687 0 3.141.125 3.563.187z"/></symbol><symbol id="icon-twitter" viewBox="0 0 26 28"><path d="M25.312 6.375a10.85 10.85 0 0 1-2.531 2.609c.016.219.016.438.016.656 0 6.672-5.078 14.359-14.359 14.359-2.859 0-5.516-.828-7.75-2.266.406.047.797.063 1.219.063 2.359 0 4.531-.797 6.266-2.156a5.056 5.056 0 0 1-4.719-3.5c.313.047.625.078.953.078.453 0 .906-.063 1.328-.172a5.048 5.048 0 0 1-4.047-4.953v-.063a5.093 5.093 0 0 0 2.281.641 5.044 5.044 0 0 1-2.25-4.203c0-.938.25-1.797.688-2.547a14.344 14.344 0 0 0 10.406 5.281 5.708 5.708 0 0 1-.125-1.156 5.045 5.045 0 0 1 5.047-5.047 5.03 5.03 0 0 1 3.687 1.594 9.943 9.943 0 0 0 3.203-1.219 5.032 5.032 0 0 1-2.219 2.781c1.016-.109 2-.391 2.906-.781z"/></symbol><symbol id="icon-instagram" viewBox="0 0 24 28"><path d="M16 14c0-2.203-1.797-4-4-4s-4 1.797-4 4 1.797 4 4 4 4-1.797 4-4zm2.156 0c0 3.406-2.75 6.156-6.156 6.156S5.844 17.406 5.844 14 8.594 7.844 12 7.844s6.156 2.75 6.156 6.156zm1.688-6.406c0 .797-.641 1.437-1.437 1.437S16.97 8.39 16.97 7.594s.641-1.437 1.437-1.437 1.437.641 1.437 1.437zM12 4.156c-1.75 0-5.5-.141-7.078.484-.547.219-.953.484-1.375.906s-.688.828-.906 1.375c-.625 1.578-.484 5.328-.484 7.078s-.141 5.5.484 7.078c.219.547.484.953.906 1.375s.828.688 1.375.906c1.578.625 5.328.484 7.078.484s5.5.141 7.078-.484c.547-.219.953-.484 1.375-.906s.688-.828.906-1.375c.625-1.578.484-5.328.484-7.078s.141-5.5-.484-7.078c-.219-.547-.484-.953-.906-1.375s-.828-.688-1.375-.906C17.5 4.015 13.75 4.156 12 4.156zM24 14c0 1.656.016 3.297-.078 4.953-.094 1.922-.531 3.625-1.937 5.031s-3.109 1.844-5.031 1.937c-1.656.094-3.297.078-4.953.078s-3.297.016-4.953-.078c-1.922-.094-3.625-.531-5.031-1.937S.173 20.875.08 18.953C-.014 17.297.002 15.656.002 14s-.016-3.297.078-4.953c.094-1.922.531-3.625 1.937-5.031s3.109-1.844 5.031-1.937c1.656-.094 3.297-.078 4.953-.078s3.297-.016 4.953.078c1.922.094 3.625.531 5.031 1.937s1.844 3.109 1.937 5.031C24.016 10.703 24 12.344 24 14z"/></symbol><symbol id="icon-phone1" viewBox="0 0 32 32"><path d="M22 20c-2 2-2 4-4 4s-4-2-6-4-4-4-4-6 2-2 4-4-4-8-6-8-6 6-6 6c0 4 4.109 12.109 8 16s12 8 16 8c0 0 6-4 6-6s-6-8-8-6z"/></symbol><symbol id="icon-location1" viewBox="0 0 32 32"><path d="M16 0C10.477 0 6 4.477 6 10c0 10 10 22 10 22s10-12 10-22c0-5.523-4.477-10-10-10zm0 16a6 6 0 1 1 0-12 6 6 0 0 1 0 12z"/></symbol><symbol id="icon-facebook1" viewBox="0 0 32 32"><path d="M19 6h5V0h-5c-3.86 0-7 3.14-7 7v3H8v6h4v16h6V16h5l1-6h-6V7c0-.542.458-1 1-1z"/></symbol><symbol id="icon-linkedin2" viewBox="0 0 32 32"><path d="M12 12h5.535v2.837h.079c.77-1.381 2.655-2.837 5.464-2.837C28.92 12 30 15.637 30 20.367V30h-5.769v-8.54c0-2.037-.042-4.657-3.001-4.657-3.005 0-3.463 2.218-3.463 4.509V30H12V12zM2 12h6v18H2V12zm6-5a3 3 0 1 1-6 0 3 3 0 0 1 6 0z"/></symbol>

<symbol id="modal-close" viewBox="0 0 32 32">
<path d="M31.708 25.708c-0-0-0-0-0-0l-9.708-9.708 9.708-9.708c0-0 0-0 0-0 0.105-0.105 0.18-0.227 0.229-0.357 0.133-0.356 0.057-0.771-0.229-1.057l-4.586-4.586c-0.286-0.286-0.702-0.361-1.057-0.229-0.13 0.048-0.252 0.124-0.357 0.228 0 0-0 0-0 0l-9.708 9.708-9.708-9.708c-0-0-0-0-0-0-0.105-0.104-0.227-0.18-0.357-0.228-0.356-0.133-0.771-0.057-1.057 0.229l-4.586 4.586c-0.286 0.286-0.361 0.702-0.229 1.057 0.049 0.13 0.124 0.252 0.229 0.357 0 0 0 0 0 0l9.708 9.708-9.708 9.708c-0 0-0 0-0 0-0.104 0.105-0.18 0.227-0.229 0.357-0.133 0.355-0.057 0.771 0.229 1.057l4.586 4.586c0.286 0.286 0.702 0.361 1.057 0.229 0.13-0.049 0.252-0.124 0.357-0.229 0-0 0-0 0-0l9.708-9.708 9.708 9.708c0 0 0 0 0 0 0.105 0.105 0.227 0.18 0.357 0.229 0.356 0.133 0.771 0.057 1.057-0.229l4.586-4.586c0.286-0.286 0.362-0.702 0.229-1.057-0.049-0.13-0.124-0.252-0.229-0.357z"></path>
</symbol>

</defs></svg>

